<svg id="Artwork" xmlns="http://www.w3.org/2000/svg" viewBox="0 0 445 157"><defs><style>.cls-1,.cls-2,.cls-3,.cls-4,.cls-5{fill:#3c3c3b;}.cls-2{opacity:0.8;}.cls-3{opacity:0.4;}.cls-4{opacity:0.3;}.cls-5{opacity:0.6;}</style></defs><path class="cls-1" d="M136.74,80.27a3.22,3.22,0,0,1,3.2-3.24h.71a3.41,3.41,0,0,1,3,1.73l11,17.3,11.1-17.36A3.26,3.26,0,0,1,168.7,77h.67a3.23,3.23,0,0,1,3.24,3.22v30.56a3.18,3.18,0,0,1-3.18,3.19h-.06a3.24,3.24,0,0,1-3.18-3.19V89l-8.91,13.4a3,3,0,0,1-5.36,0l-8.87-13.3v21.84A3.12,3.12,0,0,1,140,114s0,0-.08,0a3.08,3.08,0,0,1-3.13-3V80.27Zm53.09,30.21v-30A3.19,3.19,0,0,1,193,77.24h21.28a2.89,2.89,0,0,1,2.84,2.83,2.84,2.84,0,0,1-2.84,2.84h-18v9.44h15.67a2.91,2.91,0,0,1,2.84,2.92,2.84,2.84,0,0,1-2.84,2.84H196.25v9.8h18.29a2.87,2.87,0,0,1,0,5.73H193a3.19,3.19,0,0,1-3.21-3.14ZM232.6,80.27A3.22,3.22,0,0,1,235.8,77h.67a3.43,3.43,0,0,1,3,1.73l11,17.3,11.1-17.36A3.26,3.26,0,0,1,264.51,77h.68a3.22,3.22,0,0,1,3.23,3.21v30.57a3.17,3.17,0,0,1-3.16,3.19h-.07a3.24,3.24,0,0,1-3.18-3.19V89l-8.91,13.4a3,3,0,0,1-5.37,0l-8.86-13.3v21.84a3.12,3.12,0,0,1-3.1,3.13.22.22,0,0,1-.08,0,3.08,3.08,0,0,1-3.13-3v-.1Zm53.1.21a3.18,3.18,0,0,1,3.12-3.24h13.24c4.17,0,7.46,1.15,9.54,3.24a8.14,8.14,0,0,1,2.45,6v.11c0,4.38-2.5,6.72-5.21,8.12,4.28,1.47,7.24,3.91,7.24,8.87v.1c0,6.52-5.36,10-13.5,10H288.93a3.18,3.18,0,0,1-3.23-3.13V80.48Zm15.06,12.14c4.11,0,6.88-1.61,6.88-5v-.1c0-2.83-2.29-4.65-6.41-4.65H292v9.7Zm1.89,15.43c4.38,0,7-1.72,7-5v-.1c0-3.08-2.45-4.9-7.51-4.9H292v10Zm28.53,2.45v-30a3.19,3.19,0,0,1,3.14-3.24h21.3a2.89,2.89,0,0,1,2.83,2.84,2.83,2.83,0,0,1-2.83,2.83h-18v9.44h15.68a2.91,2.91,0,0,1,2.83,2.93,2.83,2.83,0,0,1-2.83,2.83H337.59v9.8h18.29a2.87,2.87,0,0,1,0,5.73H334.41a3.19,3.19,0,0,1-3.24-3.11Zm42.76-30a3.18,3.18,0,0,1,3.15-3.21h13.09c4.58,0,8.18,1.36,10.53,3.65a11,11,0,0,1,3,7.88v.1c0,5.84-3.39,9.38-8.29,10.89l7,8.81a3.78,3.78,0,0,1,1,2.45,3,3,0,0,1-3.07,3h0a3.67,3.67,0,0,1-3.12-1.68L388.41,101h-8.08v9.8a3.21,3.21,0,0,1-6.41,0ZM389.73,95.3c4.58,0,7.51-2.4,7.51-6.1v-.1c0-3.91-2.83-6-7.56-6h-9.32V95.33Z"/><path class="cls-1" d="M252.75,47.21H262A2.09,2.09,0,1,0,262,43H249.31a2.08,2.08,0,0,0-2.08,1.84h0V61.49a2.08,2.08,0,0,0,2.08,2.08H262a2.09,2.09,0,1,0,0-4.17h-9.25a1.22,1.22,0,0,1-1.37-1,1,1,0,0,1,0-.35V56.77a1.22,1.22,0,0,1,1.06-1.36,1.08,1.08,0,0,1,.31,0H260a2.09,2.09,0,0,0,0-4.17h-7.2a1.22,1.22,0,0,1-1.37-1,1,1,0,0,1,0-.35V48.6a1.22,1.22,0,0,1,1-1.39A1,1,0,0,1,252.75,47.21Z"/><path class="cls-1" d="M155.38,43a2.09,2.09,0,0,0-2.09,2.08v9.17c0,1-1,1.41-1.83.55l-11.18-11.2a2.08,2.08,0,0,0-3.54,1.48V61.59a2.09,2.09,0,1,0,4.17,0v-9c0-1.13.91-1.71,1.85-.77L153.94,63a2.08,2.08,0,0,0,3.52-1.45V45A2.08,2.08,0,0,0,155.38,43Z"/><path class="cls-1" d="M240.46,43a2.09,2.09,0,0,0-2.09,2.08v9.17c0,1-1,1.41-1.83.55l-11.18-11.2a2.08,2.08,0,0,0-3.54,1.48V61.59a2.09,2.09,0,1,0,4.17,0v-9c0-1.13.91-1.71,1.85-.77L239,63a2.08,2.08,0,0,0,3.52-1.45V45A2.08,2.08,0,0,0,240.46,43Z"/><path class="cls-1" d="M206.19,43a2,2,0,0,0-1.46.6L198,50.31a1.35,1.35,0,0,1-1.87.35,1.45,1.45,0,0,1-.35-.35l-6.73-6.73A2.08,2.08,0,0,0,185.53,45V61.59a2.09,2.09,0,1,0,4.17,0v-9c0-1.13.91-1.71,1.85-.77l3.92,3.93a1.94,1.94,0,0,0,1.45.63,2,2,0,0,0,1.44-.63l3.93-3.93c.94-.94,1.85-.36,1.85.77v9a2.09,2.09,0,0,0,4.18,0V45A2.09,2.09,0,0,0,206.21,43Z"/><path class="cls-1" d="M215.05,43A2.08,2.08,0,0,0,213,45.06V61.59a2.09,2.09,0,1,0,4.17,0V45A2.08,2.08,0,0,0,215.05,43Z"/><path class="cls-1" d="M171.48,43a10.35,10.35,0,1,0,10.35,10.35A10.34,10.34,0,0,0,171.48,43Zm0,16.68a6.33,6.33,0,1,1,6.26-6.4v.07a6.26,6.26,0,0,1-6.21,6.31h-.05Z"/><path class="cls-1" d="M283.59,43.08H268.52a2.09,2.09,0,0,0,0,4.17h4A1.32,1.32,0,0,1,274,48.4a1.5,1.5,0,0,1,0,.3V61.63a2.09,2.09,0,1,0,4.17,0v-13a1.31,1.31,0,0,1,1.16-1.45h4.29a2.09,2.09,0,1,0,0-4.17Z"/><path class="cls-1" d="M155.38,43a2.09,2.09,0,0,0-2.09,2.08v9.17c0,1-1,1.41-1.83.55l-11.18-11.2a2.08,2.08,0,0,0-3.54,1.48V61.59a2.09,2.09,0,1,0,4.17,0v-9c0-1.13.91-1.71,1.85-.77L153.94,63a2.08,2.08,0,0,0,3.52-1.45V45A2.08,2.08,0,0,0,155.38,43Z"/><path class="cls-1" d="M240.46,43a2.09,2.09,0,0,0-2.09,2.08v9.17c0,1-1,1.41-1.83.55l-11.18-11.2a2.08,2.08,0,0,0-3.54,1.48V61.59a2.09,2.09,0,1,0,4.17,0v-9c0-1.13.91-1.71,1.85-.77L239,63a2.08,2.08,0,0,0,3.52-1.45V45A2.08,2.08,0,0,0,240.46,43Z"/><path class="cls-1" d="M206.19,43a2,2,0,0,0-1.46.6L198,50.31a1.35,1.35,0,0,1-1.87.35,1.45,1.45,0,0,1-.35-.35l-6.73-6.73A2.08,2.08,0,0,0,185.53,45V61.59a2.09,2.09,0,1,0,4.17,0v-9c0-1.13.91-1.71,1.85-.77l3.92,3.93a1.94,1.94,0,0,0,1.45.63,2,2,0,0,0,1.44-.63l3.93-3.93c.94-.94,1.85-.36,1.85.77v9a2.09,2.09,0,0,0,4.18,0V45A2.09,2.09,0,0,0,206.21,43Z"/><path class="cls-1" d="M215.05,43A2.08,2.08,0,0,0,213,45.06V61.59a2.09,2.09,0,1,0,4.17,0V45A2.08,2.08,0,0,0,215.05,43Z"/><path class="cls-1" d="M171.48,43a10.35,10.35,0,1,0,10.35,10.35A10.34,10.34,0,0,0,171.48,43Zm0,16.68a6.33,6.33,0,1,1,6.26-6.4v.07a6.26,6.26,0,0,1-6.21,6.31h-.05Z"/><path class="cls-1" d="M283.59,43.08H268.52a2.09,2.09,0,0,0,0,4.17h4A1.32,1.32,0,0,1,274,48.4a1.5,1.5,0,0,1,0,.3V61.63a2.09,2.09,0,1,0,4.17,0v-13a1.31,1.31,0,0,1,1.16-1.45h4.29a2.09,2.09,0,1,0,0-4.17Z"/><path class="cls-1" d="M89.7,64.83A2.76,2.76,0,0,0,87,67.56V79.68c0,1.43-1.31,1.86-2.43.73L69.74,65.64a2.73,2.73,0,0,0-4.67,1.92V89.44a2.74,2.74,0,0,0,5.48,0V77.62c0-1.5,1.2-2.26,2.44-1L87.77,91.36a2.72,2.72,0,0,0,4.66-1.92V67.56A2.75,2.75,0,0,0,89.7,64.83Z"/><path class="cls-2" d="M95.76,61.9a6.29,6.29,0,0,0-5-2.14c-3.91,0-5.61,2.05-7.11,3.86-1.14,1.38-2.13,2.56-3.94,2.56-1.43,0-2.82-1.17-4.44-2.52-2.17-1.83-4.64-3.9-8.09-3.9a7.19,7.19,0,0,0-7.18,7.18V90.06a7.65,7.65,0,0,0,1.7,5,6.29,6.29,0,0,0,5,2.14c3.91,0,5.61-2,7.11-3.86C75,92,75.94,90.82,77.75,90.82c1.42,0,2.82,1.17,4.44,2.52,2.17,1.83,4.64,3.9,8.09,3.9a7.19,7.19,0,0,0,7.18-7.18V66.94A7.65,7.65,0,0,0,95.76,61.9Zm.7,28.16a6.18,6.18,0,0,1-6.18,6.18c-3.09,0-5.41-1.95-7.45-3.66-1.69-1.42-3.29-2.76-5.08-2.76-2.28,0-3.51,1.49-4.71,2.92-1.42,1.72-2.9,3.5-6.34,3.5a5.31,5.31,0,0,1-4.19-1.79A6.64,6.64,0,0,1,61,90.06V66.94a6.18,6.18,0,0,1,6.18-6.18c3.09,0,5.41,2,7.45,3.66,1.69,1.42,3.29,2.76,5.08,2.76,2.28,0,3.51-1.49,4.71-2.92,1.42-1.72,2.9-3.5,6.34-3.5A5.31,5.31,0,0,1,95,62.55a6.64,6.64,0,0,1,1.46,4.39Z"/><path class="cls-3" d="M105.39,52.89A14.86,14.86,0,0,0,93.8,47.78a17.68,17.68,0,0,0-9.14,2.72c-1.87,1-3.49,1.89-5.51,1.89s-3.65-.85-5.55-1.84a19.5,19.5,0,0,0-9.83-2.77,15.71,15.71,0,0,0-10.88,4.13C49.71,54.9,48,59.19,48,64.32V92.68a17.36,17.36,0,0,0,4.08,11.43,14.84,14.84,0,0,0,11.58,5.11,17.71,17.71,0,0,0,9.15-2.72c1.87-1,3.48-1.89,5.5-1.89s3.65.85,5.56,1.84a19.49,19.49,0,0,0,9.82,2.77,15.73,15.73,0,0,0,10.89-4.13c3.17-3,4.85-7.28,4.85-12.41V64.32A17.41,17.41,0,0,0,105.39,52.89Zm3.09,39.79c0,4.85-1.57,8.89-4.54,11.69a14.77,14.77,0,0,1-10.21,3.86,18.74,18.74,0,0,1-9.36-2.66c-1.94-1-3.77-2-6-2s-4.07,1-6,2a17,17,0,0,1-8.67,2.6c-7.29,0-14.67-5.34-14.67-15.55V64.32c0-4.85,1.57-8.89,4.54-11.69a14.77,14.77,0,0,1,10.2-3.86,18.75,18.75,0,0,1,9.37,2.66c1.94,1,3.77,2,6,2s4.08-1,6-2a17,17,0,0,1,8.66-2.6c7.29,0,14.68,5.34,14.68,15.55Z"/><path class="cls-4" d="M109.92,45.68A20.06,20.06,0,0,0,96.61,41,24.83,24.83,0,0,0,87,43.15a21.69,21.69,0,0,1-8.23,1.93,21.68,21.68,0,0,1-8.22-1.93A24.83,24.83,0,0,0,60.9,41a20.06,20.06,0,0,0-13.31,4.71c-4.13,3.62-6.32,9.08-6.32,15.78V95.54c0,6.7,2.19,12.16,6.32,15.78A20.1,20.1,0,0,0,60.9,116a24.83,24.83,0,0,0,9.63-2.17,21.68,21.68,0,0,1,8.22-1.93A21.69,21.69,0,0,1,87,113.85,24.83,24.83,0,0,0,96.61,116a20.1,20.1,0,0,0,13.31-4.7c4.13-3.62,6.31-9.08,6.31-15.78V61.46C116.23,54.76,114.05,49.3,109.92,45.68Zm5.32,49.86c0,14.38-10,19.49-18.63,19.49a24,24,0,0,1-9.28-2.11,22.71,22.71,0,0,0-8.58-2,22.75,22.75,0,0,0-8.58,2A24,24,0,0,1,60.9,115c-8.59,0-18.63-5.11-18.63-19.49V61.46C42.27,47.08,52.31,42,60.9,42a24,24,0,0,1,9.27,2.11,22.75,22.75,0,0,0,8.58,2,22.71,22.71,0,0,0,8.58-2A24,24,0,0,1,96.61,42c8.59,0,18.63,5.11,18.63,19.49Z"/><path class="cls-5" d="M91.73,54.31a12.2,12.2,0,0,0-8.1,3.11c-1.36,1-2.53,1.94-4.13,1.94-1.33,0-2.39-.79-3.74-1.78a13.49,13.49,0,0,0-8.82-3.27,13,13,0,0,0-8.6,3,11.61,11.61,0,0,0-3.83,9.08V90.61c0,7.56,4.22,12.08,11.27,12.08a12.22,12.22,0,0,0,8.1-3.11c1.35-1,2.52-1.94,4.13-1.94,1.32,0,2.39.79,3.73,1.78a13.52,13.52,0,0,0,8.83,3.27,13,13,0,0,0,8.59-3A11.6,11.6,0,0,0,103,90.61V66.39C103,58.83,98.78,54.31,91.73,54.31ZM102,90.61c0,7.66-5.74,11.09-11.43,11.09-4.07,0-6.28-1.64-8.23-3.08-1.44-1.06-2.68-2-4.33-2-1.94,0-3.3,1-4.74,2.15a11.2,11.2,0,0,1-7.49,2.91c-9.27,0-10.27-7.76-10.27-11.09V66.39c0-7.66,5.74-11.09,11.43-11.09,4.07,0,6.28,1.64,8.23,3.08,1.43,1.06,2.67,2,4.33,2,1.94,0,3.3-1,4.74-2.15a11.18,11.18,0,0,1,7.49-2.91C101,55.3,102,63.06,102,66.39Z"/></svg>